<svg width="76" height="76" viewBox="0 0 76 76" fill="none" xmlns="http://www.w3.org/2000/svg">
<rect y="11.0457" width="65" height="65" rx="15" transform="rotate(-9.78383 0 11.0457)" fill="url(#paint0_linear_27_140)"/>
<g clip-path="url(#clip0_27_140)">
<path d="M35.4692 25.4782C28.8027 26.6273 24.329 32.9645 25.4781 39.6311C26.6272 46.2976 32.9644 50.7713 39.6309 49.6222C46.2975 48.4731 50.7712 42.1359 49.622 35.4694C48.4729 28.8028 42.1358 24.3291 35.4692 25.4782ZM31.0914 36.1385C31.04 35.7989 31.1237 35.4526 31.3247 35.174C31.5257 34.8954 31.8279 34.7066 32.1664 34.6483C32.5049 34.5899 32.8529 34.6666 33.1355 34.8618C33.4182 35.0571 33.613 35.3553 33.6783 35.6926C33.7297 36.0323 33.6459 36.3786 33.445 36.6572C33.244 36.9358 32.9418 37.1245 32.6033 37.1829C32.2647 37.2412 31.9168 37.1645 31.6342 36.9693C31.3515 36.774 31.1567 36.4758 31.0914 36.1385ZM38.3908 42.4275C36.0869 42.8246 33.8853 41.3367 33.3752 39.0856C33.3687 39.0566 33.3682 39.0267 33.3736 38.9975C33.3791 38.9683 33.3904 38.9406 33.4069 38.9159C33.4234 38.8913 33.4448 38.8703 33.4697 38.8541C33.4946 38.838 33.5225 38.8271 33.5518 38.8221L34.8479 38.5987C34.9611 38.5792 35.0729 38.6487 35.1005 38.7604C35.4328 40.0766 36.7327 40.9375 38.0935 40.7029C39.4543 40.4684 40.3937 39.2215 40.2634 37.8705C40.252 37.7559 40.3342 37.653 40.4473 37.6335L41.7435 37.4101C41.7727 37.405 41.8027 37.4059 41.8315 37.4128C41.8604 37.4197 41.8876 37.4323 41.9114 37.45C41.9352 37.4677 41.9551 37.4901 41.97 37.5157C41.985 37.5414 41.9945 37.5698 41.998 37.5993C42.271 39.8913 40.6947 42.0304 38.3908 42.4275ZM42.0929 35.574C41.7533 35.6255 41.407 35.5417 41.1284 35.3407C40.8498 35.1398 40.661 34.8376 40.6027 34.499C40.5443 34.1605 40.621 33.8126 40.8162 33.5299C41.0115 33.2473 41.3097 33.0524 41.647 32.9872C41.9867 32.9357 42.333 33.0195 42.6116 33.2205C42.8902 33.4215 43.0789 33.7236 43.1373 34.0622C43.1956 34.4007 43.1189 34.7486 42.9237 35.0313C42.7284 35.3139 42.4302 35.5088 42.0929 35.574Z" fill="#EDEDED"/>
</g>
<defs>
<linearGradient id="paint0_linear_27_140" x1="32.5" y1="-61.8988" x2="32.5" y2="138.879" gradientUnits="userSpaceOnUse">
<stop stop-color="#0077ED"/>
<stop offset="1" stop-color="#7BF9D3"/>
</linearGradient>
<clipPath id="clip0_27_140">
<rect width="28" height="28" fill="white" transform="translate(21.3754 26.1318) rotate(-9.78)"/>
</clipPath>
</defs>
</svg>
