<svg width="77" height="76" viewBox="0 0 77 76" fill="none" xmlns="http://www.w3.org/2000/svg">
<rect x="0.949921" y="11.6775" width="65" height="65" rx="15" transform="rotate(-9.78383 0.949921 11.6775)" fill="url(#paint0_linear_27_130)"/>
<path d="M48.676 37.0293C49.0255 36.353 49.1497 35.5769 49.0182 34.8143C48.8096 33.6044 47.9358 32.5758 46.737 32.1249C46.4284 32.0089 46.0944 31.9774 45.7696 32.0337L39.3079 33.148L38.8985 29.8084C38.7982 29.0016 38.3843 28.2905 37.7347 27.806C37.4157 27.5669 37.051 27.3959 36.6633 27.3033C36.2755 27.2108 35.8729 27.1987 35.4804 27.2679C34.0792 27.5096 33.0023 28.6664 32.8632 30.0805L31.9936 38.8599L31.9856 38.8613L33.9743 50.3942L46.7009 48.1996C46.9488 48.1569 47.183 48.0666 47.3899 47.931C48.5782 47.1628 49.1894 45.7672 48.9496 44.3768C48.8911 44.0372 48.7849 43.7115 48.6322 43.4048C48.9817 42.7286 49.1059 41.9524 48.9744 41.1899C48.9159 40.8503 48.8098 40.5246 48.657 40.2179C49.0065 39.5417 49.1308 38.7655 48.9993 38.003C48.9353 37.6644 48.8287 37.3359 48.676 37.0293ZM27.7959 40.4717L29.4873 50.28C29.5695 50.757 30.0213 51.0759 30.4982 50.9936L32.2497 50.6916L30.261 39.1587L28.5095 39.4607C28.0326 39.5429 27.7137 39.9947 27.7959 40.4717Z" fill="#EDEDED"/>
<defs>
<linearGradient id="paint0_linear_27_130" x1="33.4499" y1="-61.2669" x2="33.4499" y2="139.511" gradientUnits="userSpaceOnUse">
<stop stop-color="#0077ED"/>
<stop offset="1" stop-color="#7BF9D3"/>
</linearGradient>
</defs>
</svg>
